<svg xmlns="http://www.w3.org/2000/svg" xmlns:xlink="http://www.w3.org/1999/xlink" preserveAspectRatio="xMidYMid" width="16.031" height="14.25" viewBox="0 0 16.031 14.25">
  <defs>
    <style>
      .cls-1 {
        fill: #95e1d3;
        fill-rule: evenodd;
      }
    </style>
  </defs>
  <path d="M8.447,12.228 C7.874,12.228 7.313,12.063 6.771,11.985 C4.580,14.756 1.124,14.210 1.124,14.210 C3.565,13.055 3.515,11.141 3.081,10.886 C1.165,9.760 0.013,8.046 0.013,6.125 C0.013,2.735 3.740,-0.014 8.447,-0.014 C13.155,-0.014 16.024,2.735 16.024,6.125 C16.024,9.517 13.155,12.228 8.447,12.228 ZM4.273,4.745 C3.445,4.745 2.773,5.416 2.773,6.245 C2.773,7.073 3.445,7.745 4.273,7.745 C5.102,7.745 5.773,7.073 5.773,6.245 C5.773,5.416 5.102,4.745 4.273,4.745 ZM8.023,4.745 C7.195,4.745 6.523,5.416 6.523,6.245 C6.523,7.073 7.195,7.745 8.023,7.745 C8.852,7.745 9.523,7.073 9.523,6.245 C9.523,5.416 8.852,4.745 8.023,4.745 ZM11.773,4.745 C10.945,4.745 10.273,5.416 10.273,6.245 C10.273,7.073 10.945,7.745 11.773,7.745 C12.602,7.745 13.273,7.073 13.273,6.245 C13.273,5.416 12.602,4.745 11.773,4.745 Z" class="cls-1"/>
</svg>
