<svg xmlns="http://www.w3.org/2000/svg" xmlns:xlink="http://www.w3.org/1999/xlink" preserveAspectRatio="xMidYMid" width="12.031" height="25.62" viewBox="0 0 12.031 25.62">
  <defs>
    <style>
      .cls-1 {
        fill: #fff;
        fill-rule: evenodd;
      }
    </style>
  </defs>
  <path d="M11.995,0.009 C11.995,1.485 11.995,4.130 11.995,4.130 C11.995,4.130 8.958,3.827 8.197,4.991 C7.781,5.627 8.028,7.491 7.991,8.829 C9.317,8.829 10.694,8.829 12.020,8.829 C11.680,10.393 11.436,11.453 11.185,12.807 C10.038,12.807 7.969,12.807 7.969,12.807 L7.969,25.611 C7.969,25.611 4.172,25.611 2.387,25.611 C2.388,21.664 2.386,17.059 2.387,12.857 C1.520,12.857 0.879,12.857 0.012,12.857 C0.012,11.382 0.012,10.306 0.012,8.829 C0.853,8.829 1.519,8.829 2.361,8.829 C2.481,5.883 2.526,2.965 3.990,1.479 C5.634,-0.192 7.203,0.009 11.995,0.009 Z" class="cls-1"/>
</svg>
