<svg xmlns="http://www.w3.org/2000/svg" xmlns:xlink="http://www.w3.org/1999/xlink" preserveAspectRatio="xMidYMid" width="19.594" height="25.62" viewBox="0 0 19.594 25.62">
  <defs>
    <style>
      .cls-1 {
        fill: #f38181;
        fill-rule: evenodd;
      }
    </style>
  </defs>
  <path d="M8.145,16.634 C7.936,17.467 7.725,18.340 7.507,19.194 C7.292,20.036 7.102,20.890 6.789,21.664 C6.270,22.945 5.611,24.183 4.746,25.185 C4.171,25.852 4.293,25.586 4.120,25.550 C3.988,25.523 3.977,25.393 3.951,25.205 C3.810,24.187 3.906,23.010 3.958,21.866 C4.018,20.562 4.292,19.478 4.547,18.395 C5.031,16.332 5.493,14.308 5.982,12.231 C6.014,12.093 6.102,11.865 6.072,11.786 C5.850,11.209 5.706,10.691 5.643,10.086 C5.570,9.390 5.626,8.741 5.782,8.142 C6.059,7.084 6.695,6.147 7.676,5.804 C8.300,5.588 8.991,5.686 9.411,5.936 C9.843,6.195 10.140,6.603 10.278,7.182 C10.426,7.797 10.317,8.533 10.198,9.073 C9.931,10.292 9.580,11.207 9.261,12.383 C9.103,12.966 8.924,13.565 9.072,14.195 C9.208,14.773 9.509,15.171 9.919,15.470 C10.345,15.780 10.849,15.949 11.544,15.925 C12.772,15.882 13.625,15.097 14.195,14.357 C15.108,13.172 15.660,11.573 15.870,9.671 C15.937,9.057 15.987,8.352 15.940,7.657 C15.852,6.373 15.451,5.340 14.813,4.540 C14.207,3.778 13.347,3.171 12.301,2.829 C11.264,2.491 9.829,2.378 8.554,2.596 C6.236,2.993 4.602,4.310 3.639,6.129 C3.135,7.081 2.802,8.176 2.802,9.539 C2.802,10.590 3.061,11.404 3.480,12.039 C3.613,12.240 3.808,12.406 3.938,12.636 C4.123,12.962 3.910,13.447 3.819,13.800 C3.709,14.225 3.697,14.812 3.201,14.822 C2.995,14.826 2.737,14.676 2.563,14.579 C1.258,13.858 0.466,12.546 0.141,10.845 C-0.057,9.811 -0.056,8.606 0.141,7.607 C0.331,6.640 0.685,5.749 1.078,5.026 C1.892,3.523 3.085,2.321 4.537,1.463 C5.653,0.803 6.912,0.340 8.444,0.117 C8.952,0.043 9.478,0.012 10.049,-0.014 C11.717,-0.093 13.233,0.285 14.375,0.795 C15.580,1.334 16.542,2.051 17.355,2.941 C18.193,3.856 18.803,4.920 19.189,6.250 C19.391,6.942 19.587,7.682 19.587,8.537 C19.587,9.395 19.406,10.150 19.279,10.905 C18.805,13.733 17.460,16.046 15.441,17.363 C14.952,17.682 14.360,17.976 13.687,18.172 C13.020,18.366 12.259,18.512 11.444,18.455 C10.653,18.401 10.005,18.186 9.461,17.878 C8.921,17.573 8.467,17.199 8.145,16.634 Z" class="cls-1"/>
</svg>
