<svg xmlns="http://www.w3.org/2000/svg" xmlns:xlink="http://www.w3.org/1999/xlink" preserveAspectRatio="xMidYMid" width="25.594" height="20.79" viewBox="0 0 25.594 20.79">
  <defs>
    <style>
      .cls-1 {
        fill: #f38181;
        fill-rule: evenodd;
      }
    </style>
  </defs>
  <path d="M17.419,0.011 C19.453,-0.025 20.536,0.716 21.570,1.659 C22.448,1.583 23.589,1.093 24.261,0.751 C24.478,0.633 24.696,0.513 24.914,0.394 C24.530,1.431 24.010,2.243 23.210,2.860 C23.032,2.996 22.856,3.181 22.633,3.268 C22.633,3.272 22.633,3.277 22.633,3.281 C23.773,3.270 24.713,2.755 25.606,2.476 C25.606,2.480 25.606,2.485 25.606,2.489 C25.137,3.234 24.502,3.991 23.825,4.533 C23.552,4.750 23.278,4.967 23.005,5.184 C23.020,6.391 22.987,7.543 22.762,8.557 C21.450,14.452 17.974,18.455 12.473,20.169 C10.497,20.784 7.305,21.037 5.041,20.475 C3.919,20.197 2.905,19.882 1.954,19.467 C1.425,19.235 0.935,18.985 0.467,18.700 C0.313,18.606 0.160,18.512 0.006,18.419 C0.516,18.434 1.114,18.575 1.684,18.483 C2.201,18.399 2.707,18.421 3.184,18.317 C4.372,18.056 5.427,17.711 6.335,17.180 C6.776,16.921 7.445,16.619 7.758,16.247 C7.168,16.258 6.633,16.120 6.195,15.966 C4.496,15.366 3.507,14.263 2.863,12.606 C3.378,12.663 4.861,12.797 5.208,12.504 C4.560,12.468 3.937,12.093 3.491,11.815 C2.124,10.959 1.010,9.525 1.018,7.318 C1.198,7.403 1.377,7.488 1.556,7.573 C1.900,7.718 2.249,7.795 2.658,7.880 C2.831,7.916 3.177,8.017 3.376,7.943 C3.367,7.943 3.359,7.943 3.350,7.943 C3.086,7.636 2.655,7.431 2.389,7.100 C1.512,6.011 0.691,4.334 1.210,2.336 C1.342,1.829 1.551,1.382 1.774,0.969 C1.783,0.973 1.791,0.977 1.800,0.981 C1.902,1.195 2.130,1.352 2.274,1.531 C2.722,2.086 3.274,2.585 3.837,3.025 C5.755,4.526 7.482,5.447 10.256,6.129 C10.960,6.303 11.773,6.435 12.614,6.436 C12.378,5.749 12.454,4.636 12.639,3.971 C13.107,2.297 14.122,1.092 15.612,0.446 C15.968,0.291 16.363,0.178 16.778,0.087 C16.992,0.062 17.205,0.036 17.419,0.011 Z" class="cls-1"/>
</svg>
